# xmcd CD database file
#
# Track frame offsets:
#	150
#	21262
#	37587
#	57900
#	73987
#	86962
#	102762
#	118787
#	142200
#	160037
#	183062
#	205912
#	219975
#	241050
#
# Disc length: 3487 seconds
#
# Revision: 1
# Processed by: cddbd v1.5.2PL0 Copyright (c) Steve Scherf et al.
# Submitted via: CDex 1.79
#
DISCID=c00d9d0e
DTITLE=George Yanagi - GOOD TIMES COLLECTION
DYEAR=1900
DGENRE=R&B
TTITLE0=A CHANGE IS GONNA COME
TTITLE1=TENNESSEE WALTZ
TTITLE2=TWISTIN' THE NIGHT AWAY
TTITLE3=COME RAIN OR COME SHINE
TTITLE4=UNDER THE BOARDWALK
TTITLE5=SMOKE GETS IN YOUR EYES
TTITLE6=YOU ARE MY SUNSHINE
TTITLE7=IF YOU DON'T KNOW ME BY NOW
TTITLE8=SAVE THE LAST DANCE FOR ME
TTITLE9=SUMMERTIME
TTITLE10=(SITTIN' ON)THE DOCK OF THE BAY
TTITLE11=YOU SEND ME
TTITLE12=GEORGIA ON MY MIND
TTITLE13=DANNY BOY
EXTD=
EXTT0=
EXTT1=
EXTT2=
EXTT3=
EXTT4=
EXTT5=
EXTT6=
EXTT7=
EXTT8=
EXTT9=
EXTT10=
EXTT11=
EXTT12=
EXTT13=
PLAYORDER=
